<svg width="828" height="1194" viewBox="0 0 828 1194" fill="none" xmlns="http://www.w3.org/2000/svg">
<line x1="50" y1="1194.02" x2="50" stroke="#85BDA1" stroke-width="18"/>
<line x1="50" y1="1194.02" x2="50" stroke="#85BDA1" stroke-width="18"/>
<line x1="9" y1="1194.02" x2="9" stroke="#85BDA1" stroke-width="18"/>
<line x1="264.437" y1="1194.03" x2="264.437" y2="0.0106201" stroke="#85BDA1" stroke-width="18"/>
<line x1="223" y1="1194.02" x2="223" stroke="#85BDA1" stroke-width="18"/>
<line x1="182" y1="1194.02" x2="182" stroke="#85BDA1" stroke-width="18"/>
<line x1="140" y1="1194.02" x2="140" stroke="#85BDA1" stroke-width="18"/>
<line x1="96" y1="1194.02" x2="96" stroke="#85BDA1" stroke-width="18"/>
<line x1="307" y1="1194.02" x2="307" stroke="#85BDA1" stroke-width="18"/>
<line x1="307" y1="1194.02" x2="307" stroke="#85BDA1" stroke-width="18"/>
<line x1="521.437" y1="1194.03" x2="521.437" y2="0.0106201" stroke="#85BDA1" stroke-width="18"/>
<line x1="480" y1="1194.02" x2="480" stroke="#85BDA1" stroke-width="18"/>
<line x1="439" y1="1194.02" x2="439" stroke="#85BDA1" stroke-width="18"/>
<line x1="397" y1="1194.02" x2="397" stroke="#85BDA1" stroke-width="18"/>
<line x1="353" y1="1194.02" x2="353" stroke="#85BDA1" stroke-width="18"/>
<line x1="605.437" y1="1194.03" x2="605.437" y2="0.0106201" stroke="#85BDA1" stroke-width="18"/>
<line x1="564" y1="1194.02" x2="564" stroke="#85BDA1" stroke-width="18"/>
<line x1="648" y1="1194.02" x2="648" stroke="#85BDA1" stroke-width="18"/>
<line x1="648" y1="1194.02" x2="648" stroke="#85BDA1" stroke-width="18"/>
<line x1="821" y1="1194.02" x2="821" stroke="#85BDA1" stroke-width="18"/>
<line x1="780" y1="1194.02" x2="780" stroke="#85BDA1" stroke-width="18"/>
<line x1="738" y1="1194.02" x2="738" stroke="#85BDA1" stroke-width="18"/>
<line x1="694" y1="1194.02" x2="694" stroke="#85BDA1" stroke-width="18"/>
<path d="M754.5 118.548C482.154 25.2566 331.415 15.8248 68 118.548V1082.05C336.096 1169.14 486.403 1172.9 754.5 1082.05V118.548Z" fill="#E6E9D9" stroke="#E6E9D9"/>
</svg>
