<svg width="1214" height="834" viewBox="0 0 1214 834" fill="none" xmlns="http://www.w3.org/2000/svg">
<line x1="50" y1="833.993" x2="50" stroke="#85BDA1" stroke-width="18"/>
<line x1="50" y1="833.993" x2="50" stroke="#85BDA1" stroke-width="18"/>
<line x1="9" y1="833.993" x2="9" stroke="#85BDA1" stroke-width="18"/>
<line x1="264.437" y1="834" x2="264.437" y2="0.00738525" stroke="#85BDA1" stroke-width="18"/>
<line x1="223" y1="833.993" x2="223" stroke="#85BDA1" stroke-width="18"/>
<line x1="182" y1="833.993" x2="182" stroke="#85BDA1" stroke-width="18"/>
<line x1="140" y1="833.993" x2="140" stroke="#85BDA1" stroke-width="18"/>
<line x1="96" y1="833.993" x2="96" stroke="#85BDA1" stroke-width="18"/>
<line x1="307" y1="833.993" x2="307" stroke="#85BDA1" stroke-width="18"/>
<line x1="307" y1="833.993" x2="307" stroke="#85BDA1" stroke-width="18"/>
<line x1="521.437" y1="834" x2="521.437" y2="0.00738525" stroke="#85BDA1" stroke-width="18"/>
<line x1="480" y1="833.993" x2="480" stroke="#85BDA1" stroke-width="18"/>
<line x1="439" y1="833.993" x2="439" stroke="#85BDA1" stroke-width="18"/>
<line x1="397" y1="833.993" x2="397" stroke="#85BDA1" stroke-width="18"/>
<line x1="353" y1="833.993" x2="353" stroke="#85BDA1" stroke-width="18"/>
<line x1="605.437" y1="834" x2="605.437" y2="0.00738525" stroke="#85BDA1" stroke-width="18"/>
<line x1="564" y1="833.993" x2="564" stroke="#85BDA1" stroke-width="18"/>
<line x1="648" y1="833.993" x2="648" stroke="#85BDA1" stroke-width="18"/>
<line x1="648" y1="833.993" x2="648" stroke="#85BDA1" stroke-width="18"/>
<line x1="821" y1="833.993" x2="821" stroke="#85BDA1" stroke-width="18"/>
<line x1="780" y1="833.993" x2="780" stroke="#85BDA1" stroke-width="18"/>
<line x1="738" y1="833.993" x2="738" stroke="#85BDA1" stroke-width="18"/>
<line x1="694" y1="833.993" x2="694" stroke="#85BDA1" stroke-width="18"/>
<line x1="433.005" y1="833.993" x2="433.005" stroke="#85BDA1" stroke-width="18"/>
<line x1="433.005" y1="833.993" x2="433.005" stroke="#85BDA1" stroke-width="18"/>
<line x1="392.005" y1="833.993" x2="392.005" stroke="#85BDA1" stroke-width="18"/>
<line x1="647.442" y1="834" x2="647.442" y2="0.00744629" stroke="#85BDA1" stroke-width="18"/>
<line x1="606.005" y1="833.993" x2="606.005" stroke="#85BDA1" stroke-width="18"/>
<line x1="565.005" y1="833.993" x2="565.005" stroke="#85BDA1" stroke-width="18"/>
<line x1="523.005" y1="833.993" x2="523.005" stroke="#85BDA1" stroke-width="18"/>
<line x1="479.005" y1="833.993" x2="479.005" stroke="#85BDA1" stroke-width="18"/>
<line x1="690.005" y1="833.993" x2="690.005" stroke="#85BDA1" stroke-width="18"/>
<line x1="690.005" y1="833.993" x2="690.005" stroke="#85BDA1" stroke-width="18"/>
<line x1="904.442" y1="834" x2="904.442" y2="0.00744629" stroke="#85BDA1" stroke-width="18"/>
<line x1="863.005" y1="833.993" x2="863.005" stroke="#85BDA1" stroke-width="18"/>
<line x1="822.005" y1="833.993" x2="822.005" stroke="#85BDA1" stroke-width="18"/>
<line x1="780.005" y1="833.993" x2="780.005" stroke="#85BDA1" stroke-width="18"/>
<line x1="736.005" y1="833.993" x2="736.005" stroke="#85BDA1" stroke-width="18"/>
<line x1="988.442" y1="834" x2="988.442" y2="0.00744629" stroke="#85BDA1" stroke-width="18"/>
<line x1="947.005" y1="833.993" x2="947.005" stroke="#85BDA1" stroke-width="18"/>
<line x1="1031" y1="833.993" x2="1031" stroke="#85BDA1" stroke-width="18"/>
<line x1="1031" y1="833.993" x2="1031" stroke="#85BDA1" stroke-width="18"/>
<line x1="1204" y1="833.993" x2="1204" stroke="#85BDA1" stroke-width="18"/>
<line x1="1163" y1="833.993" x2="1163" stroke="#85BDA1" stroke-width="18"/>
<line x1="1121" y1="833.993" x2="1121" stroke="#85BDA1" stroke-width="18"/>
<line x1="1077" y1="833.993" x2="1077" stroke="#85BDA1" stroke-width="18"/>
<path d="M1125 85.9074C726 -4 482 -2.00001 107 85.9074V752.809C504 826 724 826 1125 752.809V85.9074Z" fill="#E6E9D9" stroke="#E6E9D9"/>
</svg>
